<?xml version="1.0" encoding="utf-8"?>
<!-- Generator: Adobe Illustrator 26.0.0, SVG Export Plug-In . SVG Version: 6.00 Build 0)  -->
<svg version="1.1" id="Layer_1" xmlns="http://www.w3.org/2000/svg" xmlns:xlink="http://www.w3.org/1999/xlink" x="0px" y="0px"
	 viewBox="0 0 24 24" style="enable-background:new 0 0 24 24;" xml:space="preserve">
<style type="text/css">
	.st0{fill:#FFFFFF;}
</style>
<path class="st0" d="M20.9,2H3.1C2.5,2,2,2.5,2,3.1v17.8C2,21.5,2.5,22,3.1,22h0h9.6v-7.8h-2.6v-3h2.6V9c-0.2-2,1.3-3.8,3.3-4
	c0.2,0,0.4,0,0.6,0c0.8,0,1.6,0,2.3,0.1v2.7h-1.6c-1.3,0-1.5,0.6-1.5,1.5v1.9h3l-0.4,3h-2.6V22h5.1c0.6,0,1.1-0.5,1.1-1.1l0,0V3.1
	C22,2.5,21.5,2,20.9,2L20.9,2z"/>
</svg>
