<?xml version="1.0" encoding="utf-8"?>
<!-- Generator: Adobe Illustrator 26.0.0, SVG Export Plug-In . SVG Version: 6.00 Build 0)  -->
<svg version="1.1" id="Layer_1" xmlns="http://www.w3.org/2000/svg" xmlns:xlink="http://www.w3.org/1999/xlink" x="0px" y="0px"
	 viewBox="0 0 24 24" style="enable-background:new 0 0 24 24;" xml:space="preserve">
<style type="text/css">
	.st0{fill:#FFFFFF;}
</style>
<path class="st0" d="M12,9.5c-1.4,0-2.5,1.1-2.5,2.5s1.1,2.5,2.5,2.5s2.5-1.1,2.5-2.5c0,0,0,0,0,0C14.5,10.6,13.4,9.5,12,9.5z
	 M21.9,7.1c0-0.8-0.1-1.5-0.4-2.3c-0.4-1.1-1.3-1.9-2.3-2.3c-0.7-0.3-1.5-0.4-2.3-0.4C15.6,2,15.3,2,12,2S8.4,2,7.1,2.1
	c-0.8,0-1.5,0.1-2.3,0.4C3.7,2.9,2.9,3.7,2.5,4.8C2.2,5.5,2.1,6.3,2.1,7.1C2,8.4,2,8.7,2,12s0,3.6,0.1,4.9c0,0.8,0.2,1.5,0.4,2.3
	c0.2,0.5,0.5,1,0.9,1.4c0.4,0.4,0.9,0.7,1.4,0.9c0.7,0.3,1.5,0.4,2.3,0.4C8.4,22,8.7,22,12,22s3.6,0,4.9-0.1c0.8,0,1.5-0.1,2.3-0.4
	c0.5-0.2,1-0.5,1.4-0.9c0.4-0.4,0.7-0.9,0.9-1.4c0.3-0.7,0.4-1.5,0.4-2.3C22,15.6,22,15.3,22,12S22,8.4,21.9,7.1z M19.4,15.1
	c0,0.6-0.2,1.2-0.4,1.8c-0.4,1-1.2,1.7-2.1,2.1c-0.6,0.2-1.2,0.3-1.8,0.4c-0.8,0-1,0-3.1,0s-2.3,0-3.1,0c-0.6,0-1.2-0.1-1.8-0.4
	c-0.5-0.2-0.9-0.5-1.3-0.9c-0.4-0.4-0.6-0.8-0.8-1.3c-0.2-0.6-0.3-1.2-0.3-1.8c0-0.8,0-1,0-3.1s0-2.3,0-3.1c0-0.6,0.1-1.2,0.3-1.8
	c0.2-0.5,0.5-0.9,0.9-1.3C6.2,5.5,6.7,5.2,7.1,5c0.6-0.2,1.2-0.3,1.8-0.3l0,0c0.8,0,1,0,3.1,0s2.3,0,3.1,0c0.6,0,1.2,0.1,1.8,0.3
	c0.5,0.2,0.9,0.5,1.3,0.9c0.4,0.4,0.6,0.8,0.8,1.3c0.2,0.6,0.3,1.2,0.4,1.8c0,0.8,0,1,0,3.1S19.4,14.3,19.4,15.1L19.4,15.1z
	 M17.8,7.6C17.5,7,17,6.5,16.4,6.2C15.9,6.1,15.5,6,15,6c-0.8,0-1,0-3,0S9.8,6,9,6C8.5,6,8.1,6.1,7.6,6.3C7,6.5,6.5,7,6.2,7.6
	C6.1,8.1,6,8.5,6,9c0,0.8,0,1,0,3s0,2.2,0,3c0,0.5,0.1,0.9,0.3,1.4C6.5,17,7,17.5,7.7,17.8C8.1,17.9,8.5,18,9,18l0,0c0.8,0,1,0,3,0
	s2.2,0,3,0c0.5,0,0.9-0.1,1.4-0.3c0.7-0.2,1.2-0.8,1.4-1.4C18,15.9,18,15.5,18,15c0-0.8,0-1,0-3s0-2.2,0-3C18.1,8.5,18,8.1,17.8,7.6
	L17.8,7.6z M12,15.8c-2.1,0-3.8-1.7-3.8-3.8c0,0,0,0,0,0l0,0c0-2.1,1.7-3.8,3.8-3.8c2.1,0,3.8,1.7,3.8,3.8
	C15.8,14.1,14.1,15.8,12,15.8C12,15.8,12,15.8,12,15.8z M16,8.9c-0.5-0.1-0.9-0.5-0.8-1c0-0.4,0.4-0.8,0.8-0.8l0,0
	c0.5,0.1,0.9,0.5,0.8,1C16.8,8.6,16.4,8.9,16,8.9z"/>
</svg>
