<svg width="25" height="25" viewBox="0 0 25 25" fill="none" xmlns="http://www.w3.org/2000/svg">
<path d="M5.59598 24.9994H0.412946V8.30859H5.59598V24.9994ZM3.00167 6.03181C1.34431 6.03181 0 4.65904 0 3.00167C1.18627e-08 2.20558 0.316247 1.44209 0.87917 0.87917C1.44209 0.316247 2.20558 0 3.00167 0C3.79777 0 4.56125 0.316247 5.12418 0.87917C5.6871 1.44209 6.00335 2.20558 6.00335 3.00167C6.00335 4.65904 4.65848 6.03181 3.00167 6.03181ZM24.9944 24.9994H19.8225V16.8744C19.8225 14.9381 19.7835 12.4548 17.1278 12.4548C14.433 12.4548 14.0201 14.5586 14.0201 16.7349V24.9994H8.84263V8.30859H13.8136V10.5854H13.8862C14.5781 9.274 16.2684 7.89007 18.7902 7.89007C24.0357 7.89007 25 11.3443 25 15.8309V24.9994H24.9944Z" fill="white"/>
</svg>
