<?xml version="1.0" encoding="utf-8"?>
<!-- Generator: Adobe Illustrator 26.0.0, SVG Export Plug-In . SVG Version: 6.00 Build 0)  -->
<svg version="1.1" id="Layer_1" xmlns="http://www.w3.org/2000/svg" xmlns:xlink="http://www.w3.org/1999/xlink" x="0px" y="0px"
	 viewBox="0 0 24 24" style="enable-background:new 0 0 24 24;" xml:space="preserve">
<style type="text/css">
	.st0{fill:none;}
	.st1{fill:#FFFFFF;}
</style>
<path class="st0" d="M0,0h24v24H0V0z"/>
<path class="st1" d="M19.2,15.3L16.7,15c-0.6-0.1-1.2,0.1-1.6,0.6l-1.8,1.8c-2.8-1.4-5.2-3.8-6.6-6.6l1.9-1.9c0.4-0.4,0.6-1,0.6-1.6
	L8.7,4.8c-0.1-1-1-1.8-2-1.8H5C3.9,3,3,3.9,3,5.1c0.5,8.5,7.4,15.4,15.9,15.9C20,21,21,20.1,21,19v-1.7C21,16.2,20.2,15.4,19.2,15.3
	z"/>
</svg>
