<svg id="SvgjsSvg1053" width="288" height="288" xmlns="http://www.w3.org/2000/svg" version="1.1" xmlns:xlink="http://www.w3.org/1999/xlink" xmlns:svgjs="http://svgjs.com/svgjs"><defs id="SvgjsDefs1054"></defs><g id="SvgjsG1055" transform="matrix(1,0,0,1,0,0)"><svg xmlns="http://www.w3.org/2000/svg" data-name="Layer 1" viewBox="0 0 64 64" width="288" height="288"><path d="M29.143,6.616A16.9,16.9,0,0,1,32,6.372a16.656,16.656,0,0,1,11.855,4.911,1,1,0,1,0,1.415-1.414A18.643,18.643,0,0,0,32,4.372a18.83,18.83,0,0,0-3.2.274,1,1,0,1,0,.34,1.97Z" fill="#ffffff" class="color000 svgShape"></path><path d="M60.357,36A18.782,18.782,0,0,0,50.72,24.134c.017-.331.046-.661.047-1A18.681,18.681,0,0,0,47.7,12.858a1,1,0,0,0-1.672,1.1,16.688,16.688,0,0,1,2.735,9.183c0,.045-.006.089-.007.135a18.63,18.63,0,0,0-6.519-1.188A18.8,18.8,0,0,0,32,25.125a18.692,18.692,0,0,0-1.762-1.02,1,1,0,0,0-.9,1.787q.474.238.929.508a18.959,18.959,0,0,0-6.54,11.315A16.829,16.829,0,0,1,20.144,35a16.629,16.629,0,0,1-4.747-9.63,16.882,16.882,0,0,1,10.713-.7,1,1,0,0,0,.518-1.932,18.88,18.88,0,0,0-11.387.558c0-.05-.008-.1-.008-.148A16.791,16.791,0,0,1,24.666,8.056a1,1,0,0,0-.875-1.8A18.791,18.791,0,0,0,13.233,23.14c0,.335.032.665.049,1a18.569,18.569,0,0,0-3.527,2.3,1,1,0,0,0,1.279,1.538,16.44,16.44,0,0,1,2.478-1.7A18.621,18.621,0,0,0,18.729,36.41a18.824,18.824,0,0,0,4.758,3.45c-.018.328-.029.657-.029.987,0,.349.01.7.029,1.049a1.013,1.013,0,0,0,1.054.942,1,1,0,0,0,.942-1.054q-.025-.47-.025-.937c0-.042.007-.084.007-.126a18.588,18.588,0,0,0,13.072,0c0,.043.005.086.005.129A16.786,16.786,0,0,1,32,54.138,16.8,16.8,0,0,1,26.033,45.2a1,1,0,1,0-1.931.518A18.785,18.785,0,0,0,30.261,55.3,16.765,16.765,0,0,1,7.878,31.46a1,1,0,1,0-1.656-1.121A18.765,18.765,0,0,0,32,56.584a18.756,18.756,0,0,0,3.745,1.888A1,1,0,1,0,36.44,56.6,16.775,16.775,0,0,1,33.721,55.3a18.738,18.738,0,0,0,6.821-14.456c0-.327-.019-.656-.036-.985a18.829,18.829,0,0,0,4.765-3.453,18.609,18.609,0,0,0,4.181-6.359v0a18.678,18.678,0,0,0,1.037-3.769,16.766,16.766,0,0,1-9.455,31.308,1,1,0,0,0-.142,1.995q.659.047,1.325.047A18.753,18.753,0,0,0,60.357,36ZM32,39.907a16.739,16.739,0,0,1-6.378-1.253,16.923,16.923,0,0,1,6.2-10.947h0c.06-.047.124-.085.184-.131a16.8,16.8,0,0,1,6.358,10.839v0c.012.077.016.156.026.234A16.747,16.747,0,0,1,32,39.907ZM47.593,29.315h0A16.624,16.624,0,0,1,43.856,35a16.82,16.82,0,0,1-3.587,2.72,18.791,18.791,0,0,0-6.521-11.3A16.62,16.62,0,0,1,48.6,25.358,16.674,16.674,0,0,1,47.593,29.315Z" fill="#ffffff" class="color000 svgShape"></path></svg></g></svg>