<svg id="SvgjsSvg1001" width="288" height="288" xmlns="http://www.w3.org/2000/svg" version="1.1" xmlns:xlink="http://www.w3.org/1999/xlink" xmlns:svgjs="http://svgjs.com/svgjs"><defs id="SvgjsDefs1002"></defs><g id="SvgjsG1008" transform="matrix(1,0,0,1,0,0)"><svg xmlns="http://www.w3.org/2000/svg" viewBox="0 0 48 48" width="288" height="288"><g data-name="Layer 16" fill="#ffffff" class="color000 svgShape"><path d="M45,8H3A1,1,0,0,0,2,9V39a1,1,0,0,0,1,1H45a1,1,0,0,0,1-1V9A1,1,0,0,0,45,8ZM4,10H44v4H4Zm8,28V32h4v6Zm10,0V32h4v6Zm10,0V32h4v6Zm12,0H38V31a1,1,0,0,0-1-1H31a1,1,0,0,0-1,1v7H28V31a1,1,0,0,0-1-1H21a1,1,0,0,0-1,1v7H18V31a1,1,0,0,0-1-1H11a1,1,0,0,0-1,1v7H4V16H44Z" fill="#ffffff" class="color000 svgShape"></path><path d="M6 11H6a1 1 0 1 0 1 1A1 1 0 0 0 6 11zM9 11H9a1 1 0 1 0 1 1A1 1 0 0 0 9 11zM12 11h0a1 1 0 1 0 1 1A1 1 0 0 0 12 11zM11 28H37a1 1 0 0 0 1-1V19a1 1 0 0 0-1-1H11a1 1 0 0 0-1 1v8A1 1 0 0 0 11 28zm1-8H36v6H12z" fill="#ffffff" class="color000 svgShape"></path></g></svg></g></svg>