<?xml version="1.0" encoding="utf-8"?>
<!-- Generator: Adobe Illustrator 26.0.0, SVG Export Plug-In . SVG Version: 6.00 Build 0)  -->
<svg version="1.1" id="Layer_1" xmlns="http://www.w3.org/2000/svg" xmlns:xlink="http://www.w3.org/1999/xlink" x="0px" y="0px"
	 viewBox="0 0 24 24" style="enable-background:new 0 0 24 24;" xml:space="preserve">
<style type="text/css">
	.st0{fill:#FFFFFF;}
</style>
<path class="st0" d="M22,6.6c0-0.4,0-0.9-0.1-1.3c-0.1-0.4-0.2-0.7-0.4-1.1c-0.2-0.4-0.4-0.7-0.7-1c-0.3-0.3-0.6-0.5-1-0.7
	c-0.3-0.2-0.7-0.3-1.1-0.4C18.3,2,17.9,2,17.5,2H6.6C6.1,2,5.7,2,5.3,2.1C4.9,2.2,4.5,2.3,4.2,2.5c-0.4,0.2-0.7,0.4-1,0.7
	c-0.3,0.3-0.5,0.6-0.7,1C2.3,4.5,2.2,4.9,2.1,5.3C2,5.7,2,6.1,2,6.5C2,6.7,2,7,2,7.1v9.8c0,0.1,0,0.4,0,0.5c0,0.4,0,0.9,0.1,1.3
	c0.1,0.4,0.2,0.7,0.4,1.1c0.2,0.4,0.4,0.7,0.7,1c0.3,0.3,0.6,0.5,1,0.7c0.3,0.2,0.7,0.3,1.1,0.4C5.7,22,6.1,22,6.5,22h10.9
	c0.4,0,0.9,0,1.3-0.1c0.4-0.1,0.7-0.2,1.1-0.4c0.4-0.2,0.7-0.4,1-0.7c0.3-0.3,0.5-0.6,0.7-1c0.2-0.3,0.3-0.7,0.4-1.1
	c0.1-0.4,0.1-0.9,0.1-1.3c0-0.2,0-0.4,0-0.5V7.1C22,7,22,6.7,22,6.6z M12.2,19L12.2,19c-1.2,0-2.4-0.3-3.4-0.9l-3.8,1l1-3.7
	c-0.6-1.1-1-2.3-1-3.6c0-4,3.2-7.2,7.2-7.2s7.2,3.2,7.2,7.2C19.3,15.8,16.2,19,12.2,19z M12.2,5.9c-3.3,0-6,2.8-5.9,6.1
	c0,1.1,0.3,2.1,0.9,3.1l0.1,0.2l-0.6,2.2L9,16.8l0.2,0.1c0.9,0.5,1.9,0.8,3,0.8l0,0c3.3,0,6-2.7,6-6v0c0-3.3-2.7-6-6-6L12.2,5.9z
	 M15.7,14.4c-0.3,0.4-0.7,0.8-1.2,0.9c-0.4,0.1-0.8,0-1.1-0.1c-0.3-0.1-0.7-0.2-1-0.4c-1.2-0.6-2.3-1.6-3.1-2.7
	c-0.4-0.5-0.7-1.2-0.7-1.9c0-0.6,0.2-1.1,0.6-1.5c0.1-0.1,0.3-0.2,0.5-0.2H10c0.1,0,0.3,0,0.4,0.3s0.5,1.2,0.6,1.3
	c0,0.1,0,0.2,0,0.3c0,0.1-0.1,0.2-0.2,0.3c-0.1,0.1-0.2,0.2-0.3,0.3s-0.2,0.2-0.1,0.4c0.3,0.5,0.6,0.9,1,1.2
	c0.4,0.4,0.9,0.7,1.4,0.9c0.2,0.1,0.3,0.1,0.4,0s0.4-0.5,0.6-0.7s0.2-0.1,0.4-0.1s1.1,0.5,1.2,0.6s0.3,0.1,0.3,0.2
	C15.8,13.8,15.8,14.1,15.7,14.4L15.7,14.4z"/>
</svg>
