<?xml version="1.0" encoding="utf-8"?>
<!-- Generator: Adobe Illustrator 26.0.0, SVG Export Plug-In . SVG Version: 6.00 Build 0)  -->
<svg version="1.1" id="Layer_1" xmlns="http://www.w3.org/2000/svg" xmlns:xlink="http://www.w3.org/1999/xlink" x="0px" y="0px"
	 viewBox="0 0 457.6 100" style="enable-background:new 0 0 457.6 100;" xml:space="preserve">
<style type="text/css">
	.st0{fill:#3D89C9;}
	.st1{fill:#5E5F5F;}
</style>
<g>
	<g>
		<g>
			<circle class="st0" cx="61.8" cy="66.5" r="19.1"/>
		</g>
	</g>
	<g>
		<g>
			<circle class="st0" cx="98.9" cy="21.1" r="10.9"/>
		</g>
	</g>
	<g>
		<g>
			<circle class="st0" cx="41.7" cy="11.4" r="10.9"/>
		</g>
	</g>
	<g>
		<g>
			<circle class="st0" cx="10.9" cy="48.3" r="10.9"/>
		</g>
	</g>
	<g>
		<g>
			<circle class="st0" cx="13.1" cy="89.6" r="10.9"/>
		</g>
	</g>
	<g>
		<g>
			<circle class="st0" cx="116.1" cy="85.6" r="10.9"/>
		</g>
	</g>
	<g>
		<g>
			<rect x="68.2" y="39.4" transform="matrix(0.5859 -0.8104 0.8104 0.5859 0.7602 85.3874)" class="st0" width="31.5" height="5"/>
		</g>
		<g>
			<rect x="49.7" y="17" transform="matrix(0.8932 -0.4497 0.4497 0.8932 -9.6459 27.0904)" class="st0" width="5" height="33.7"/>
		</g>
		<g>
			
				<rect x="30.9" y="39.4" transform="matrix(0.3386 -0.9409 0.9409 0.3386 -30.7599 68.6223)" class="st0" width="5" height="33.7"/>
		</g>
		<g>
			
				<rect x="17.2" y="76.8" transform="matrix(0.9011 -0.4336 0.4336 0.9011 -31.0031 22.6102)" class="st0" width="33.7" height="5"/>
		</g>
		<g>
			
				<rect x="90.5" y="60.8" transform="matrix(0.3386 -0.9409 0.9409 0.3386 -11.5425 138.7987)" class="st0" width="5" height="33.7"/>
		</g>
	</g>
</g>
<g>
	<g>
		<path class="st1" d="M141.2,77.2V32.6l27.2,26.2c0.7,0.7,1.5,1.5,2.3,2.4c0.8,0.8,1.6,1.8,2.4,2.8V34.3h6.4v44.6l-27.8-26.7
			c-0.7-0.7-1.5-1.5-2.2-2.3c-0.7-0.8-1.4-1.6-2-2.5v29.8H141.2z"/>
		<path class="st1" d="M215.6,64.3h-22.2c0.2,2.6,0.9,4.6,2.3,6.1c1.4,1.5,3.2,2.2,5.5,2.2c2.1,0,3.8-0.4,5.1-1.3
			c1.4-0.9,2.6-2.2,3.6-4.2l5.4,3c-1.6,2.8-3.5,4.9-5.8,6.2c-2.3,1.4-5,2.1-8.1,2.1c-4.5,0-8-1.4-10.6-4.1c-2.6-2.7-4-6.3-4-10.9
			c0-4.4,1.4-7.9,4.1-10.7c2.7-2.8,6.2-4.2,10.5-4.2c4.5,0,8,1.3,10.5,3.8c2.5,2.6,3.8,6.1,3.8,10.8V64.3z M209,60
			c-0.3-2-1-3.5-2.3-4.6c-1.3-1-3-1.6-5.2-1.6c-2.1,0-3.8,0.5-5,1.5c-1.3,1-2.2,2.5-2.7,4.6H209z"/>
		<path class="st1" d="M228.4,49.4v15.6c0,2.7,0.6,4.6,1.7,5.8s2.9,1.8,5.4,1.8s4.3-0.6,5.4-1.8s1.7-3.1,1.7-5.8V49.4h6.4v13.7
			c0,5.3-1.1,9.2-3.2,11.6s-5.5,3.6-10.2,3.6c-4.7,0-8.2-1.2-10.3-3.6c-2.1-2.4-3.2-6.2-3.2-11.6V49.4H228.4z"/>
		<path class="st1" d="M263.9,53.9c0.7-1.8,1.6-3.2,2.7-4.1s2.5-1.3,4.2-1.3c0.9,0,1.8,0.1,2.7,0.3c0.9,0.2,1.7,0.5,2.6,0.9
			l-2.3,5.4c-0.5-0.4-1.1-0.7-1.8-0.9c-0.6-0.2-1.3-0.3-2.1-0.3c-2.1,0-3.6,0.8-4.5,2.5c-0.9,1.7-1.4,4.5-1.4,8.5v12.2h-6.4V49.4
			h6.4V53.9z"/>
		<path class="st1" d="M277.6,63.3c0-2,0.4-4,1.2-5.8c0.8-1.8,1.9-3.4,3.3-4.8c1.4-1.4,3.1-2.5,4.9-3.2c1.9-0.7,3.8-1.1,5.8-1.1
			c2.1,0,4.1,0.4,5.9,1.1c1.8,0.7,3.5,1.8,5,3.3c1.5,1.4,2.6,3,3.3,4.8c0.8,1.8,1.1,3.7,1.1,5.7c0,2.1-0.4,4-1.1,5.8
			c-0.8,1.8-1.9,3.4-3.3,4.8c-1.5,1.5-3.2,2.6-5.1,3.3c-1.9,0.8-3.8,1.1-5.9,1.1c-2,0-3.9-0.4-5.8-1.1c-1.9-0.8-3.5-1.8-5-3.3
			c-1.5-1.4-2.6-3.1-3.3-4.9C277.9,67.3,277.6,65.4,277.6,63.3z M301.4,63.4c0-2.6-0.8-4.8-2.5-6.5s-3.7-2.7-6.1-2.7
			c-2.4,0-4.4,0.9-6.1,2.7s-2.5,4-2.5,6.5s0.8,4.8,2.5,6.5s3.7,2.7,6.1,2.7s4.4-0.9,6.1-2.7S301.4,66,301.4,63.4z"/>
		<path class="st1" d="M314.9,77.2V49.4h6V54c1.3-1.9,2.8-3.3,4.5-4.2s3.8-1.3,6.3-1.3c2.1,0,3.8,0.3,5.3,1c1.5,0.7,2.6,1.6,3.4,2.9
			c0.5,0.8,0.8,1.7,1.1,2.7c0.2,1,0.3,2.8,0.3,5.3v16.8h-6.4V62.9c0-3.7-0.4-6.1-1.3-7.3s-2.5-1.8-4.7-1.8c-1.5,0-2.8,0.3-4,0.8
			c-1.2,0.5-2.1,1.3-2.7,2.3c-0.5,0.7-0.8,1.5-1,2.6c-0.2,1-0.3,2.7-0.3,5v12.7H314.9z"/>
		<path class="st1" d="M349.6,37.4c0-1.1,0.4-2,1.2-2.8c0.8-0.8,1.7-1.2,2.8-1.2c1.1,0,2.1,0.4,2.8,1.1c0.8,0.8,1.1,1.7,1.1,2.8
			c0,1.1-0.4,2.1-1.1,2.9c-0.8,0.8-1.7,1.2-2.8,1.2c-1.1,0-2-0.4-2.8-1.2S349.6,38.5,349.6,37.4z M350.4,77.2V49.4h6.4v27.8H350.4z"
			/>
		<path class="st1" d="M363.8,63.3c0-2,0.4-4,1.2-5.8c0.8-1.8,1.9-3.4,3.3-4.8c1.4-1.4,3.1-2.5,4.9-3.2c1.9-0.7,3.8-1.1,5.8-1.1
			c2.1,0,4.1,0.4,5.9,1.1c1.8,0.7,3.5,1.8,5,3.3c1.5,1.4,2.6,3,3.3,4.8c0.8,1.8,1.1,3.7,1.1,5.7c0,2.1-0.4,4-1.1,5.8
			c-0.8,1.8-1.9,3.4-3.3,4.8c-1.5,1.5-3.2,2.6-5.1,3.3c-1.9,0.8-3.8,1.1-5.9,1.1c-2,0-3.9-0.4-5.8-1.1c-1.9-0.8-3.5-1.8-5-3.3
			c-1.5-1.4-2.6-3.1-3.3-4.9C364.2,67.3,363.8,65.4,363.8,63.3z M387.7,63.4c0-2.6-0.8-4.8-2.5-6.5s-3.7-2.7-6.1-2.7
			c-2.4,0-4.4,0.9-6.1,2.7s-2.5,4-2.5,6.5s0.8,4.8,2.5,6.5s3.7,2.7,6.1,2.7s4.4-0.9,6.1-2.7S387.7,66,387.7,63.4z"/>
		<path class="st1" d="M407.3,49.4v15.6c0,2.7,0.6,4.6,1.7,5.8s2.9,1.8,5.4,1.8s4.3-0.6,5.4-1.8s1.7-3.1,1.7-5.8V49.4h6.4v13.7
			c0,5.3-1.1,9.2-3.2,11.6s-5.5,3.6-10.2,3.6c-4.7,0-8.2-1.2-10.3-3.6c-2.1-2.4-3.2-6.2-3.2-11.6V49.4H407.3z"/>
		<path class="st1" d="M433.2,72.2l5.3-2.9c0.4,1.4,1.1,2.4,2.2,3.2c1.1,0.7,2.4,1.1,4.1,1.1c1.4,0,2.5-0.3,3.4-1
			c0.8-0.7,1.2-1.5,1.2-2.7c0-1.5-1.4-2.8-4.3-3.9c-1-0.4-1.7-0.6-2.3-0.9c-3-1.2-5-2.5-6.2-3.8c-1.2-1.3-1.8-2.8-1.8-4.6
			c0-2.5,1-4.5,2.9-6c1.9-1.5,4.5-2.3,7.7-2.3c2.1,0,4,0.4,5.5,1.2s2.7,1.9,3.4,3.4l-4.5,3.1c-0.3-0.9-0.9-1.6-1.7-2.1
			c-0.8-0.5-1.8-0.8-2.9-0.8c-1.2,0-2.2,0.3-2.9,0.9c-0.7,0.6-1.1,1.3-1.1,2.3c0,1.4,1.6,2.8,4.9,4c1,0.4,1.8,0.7,2.4,0.9
			c2.6,1,4.4,2.2,5.5,3.4c1.1,1.3,1.7,2.9,1.7,4.8c0,2.8-1,4.9-3,6.5c-2,1.6-4.8,2.4-8.3,2.4c-2.7,0-5-0.5-6.8-1.5
			C435.7,75.8,434.3,74.3,433.2,72.2z"/>
	</g>
</g>
</svg>
