<?xml version="1.0" encoding="utf-8"?>
<!-- Generator: Adobe Illustrator 26.0.0, SVG Export Plug-In . SVG Version: 6.00 Build 0)  -->
<svg version="1.1" id="Layer_1" xmlns="http://www.w3.org/2000/svg" xmlns:xlink="http://www.w3.org/1999/xlink" x="0px" y="0px"
	 viewBox="0 0 457.6 100" style="enable-background:new 0 0 457.6 100;" xml:space="preserve">
<style type="text/css">
	.st0{fill:#FFFFFF;}
</style>
<g>
	<g>
		<g>
			<circle class="st0" cx="62.6" cy="66" r="19.1"/>
		</g>
	</g>
	<g>
		<g>
			<circle class="st0" cx="99.7" cy="20.6" r="10.9"/>
		</g>
	</g>
	<g>
		<g>
			<circle class="st0" cx="42.5" cy="10.9" r="10.9"/>
		</g>
	</g>
	<g>
		<g>
			<circle class="st0" cx="11.7" cy="47.8" r="10.9"/>
		</g>
	</g>
	<g>
		<g>
			<circle class="st0" cx="13.9" cy="89.1" r="10.9"/>
		</g>
	</g>
	<g>
		<g>
			<circle class="st0" cx="116.8" cy="85.1" r="10.9"/>
		</g>
	</g>
	<g>
		<g>
			<rect x="69" y="39" transform="matrix(0.5859 -0.8104 0.8104 0.5859 1.4917 85.8289)" class="st0" width="31.5" height="5"/>
		</g>
		<g>
			
				<rect x="50.5" y="16.5" transform="matrix(0.8932 -0.4497 0.4497 0.8932 -9.3381 27.3963)" class="st0" width="5" height="33.7"/>
		</g>
		<g>
			
				<rect x="31.7" y="38.9" transform="matrix(0.3386 -0.9409 0.9409 0.3386 -29.7665 69.0456)" class="st0" width="5" height="33.7"/>
		</g>
		<g>
			<rect x="18" y="76.3" transform="matrix(0.9011 -0.4336 0.4336 0.9011 -30.7096 22.9071)" class="st0" width="33.7" height="5"/>
		</g>
		<g>
			
				<rect x="91.3" y="60.3" transform="matrix(0.3386 -0.9409 0.9409 0.3386 -10.549 139.222)" class="st0" width="5" height="33.7"/>
		</g>
	</g>
</g>
<g>
	<g>
		<path class="st0" d="M142,68.7V24.1l27.2,26.2c0.7,0.7,1.5,1.5,2.3,2.4c0.8,0.8,1.6,1.8,2.4,2.8V25.8h6.4v44.6l-27.8-26.7
			c-0.7-0.7-1.5-1.5-2.2-2.3c-0.7-0.8-1.4-1.6-2-2.5v29.8H142z"/>
		<path class="st0" d="M216.4,55.7h-22.2c0.2,2.6,0.9,4.6,2.3,6.1c1.4,1.5,3.2,2.2,5.5,2.2c2.1,0,3.8-0.4,5.1-1.3
			c1.4-0.9,2.6-2.2,3.6-4.2l5.4,3c-1.6,2.8-3.5,4.9-5.8,6.2c-2.3,1.4-5,2.1-8.1,2.1c-4.5,0-8-1.4-10.6-4.1c-2.6-2.7-4-6.3-4-10.9
			c0-4.4,1.4-7.9,4.1-10.7c2.7-2.8,6.2-4.2,10.5-4.2c4.5,0,8,1.3,10.5,3.8c2.5,2.6,3.8,6.1,3.8,10.8V55.7z M209.8,51.4
			c-0.3-2-1-3.5-2.3-4.6c-1.3-1-3-1.6-5.2-1.6c-2.1,0-3.8,0.5-5,1.5c-1.3,1-2.2,2.5-2.7,4.6H209.8z"/>
		<path class="st0" d="M229.2,40.9v15.6c0,2.7,0.6,4.6,1.7,5.8s2.9,1.8,5.4,1.8s4.3-0.6,5.4-1.8s1.7-3.1,1.7-5.8V40.9h6.4v13.7
			c0,5.3-1.1,9.2-3.2,11.6s-5.5,3.6-10.2,3.6c-4.7,0-8.2-1.2-10.3-3.6c-2.1-2.4-3.2-6.2-3.2-11.6V40.9H229.2z"/>
		<path class="st0" d="M264.7,45.3c0.7-1.8,1.6-3.2,2.7-4.1s2.5-1.3,4.2-1.3c0.9,0,1.8,0.1,2.7,0.3c0.9,0.2,1.7,0.5,2.6,0.9
			l-2.3,5.4c-0.5-0.4-1.1-0.7-1.8-0.9c-0.6-0.2-1.3-0.3-2.1-0.3c-2.1,0-3.6,0.8-4.5,2.5c-0.9,1.7-1.4,4.5-1.4,8.5v12.2h-6.4V40.8
			h6.4V45.3z"/>
		<path class="st0" d="M278.3,54.8c0-2,0.4-4,1.2-5.8c0.8-1.8,1.9-3.4,3.3-4.8c1.4-1.4,3.1-2.5,4.9-3.2c1.9-0.7,3.8-1.1,5.8-1.1
			c2.1,0,4.1,0.4,5.9,1.1c1.8,0.7,3.5,1.8,5,3.3c1.5,1.4,2.6,3,3.3,4.8c0.8,1.8,1.1,3.7,1.1,5.7c0,2.1-0.4,4-1.1,5.8
			c-0.8,1.8-1.9,3.4-3.3,4.8c-1.5,1.5-3.2,2.6-5.1,3.3c-1.9,0.8-3.8,1.1-5.9,1.1c-2,0-3.9-0.4-5.8-1.1c-1.9-0.8-3.5-1.8-5-3.3
			c-1.5-1.4-2.6-3.1-3.3-4.9C278.7,58.7,278.3,56.8,278.3,54.8z M302.2,54.9c0-2.6-0.8-4.8-2.5-6.5s-3.7-2.7-6.1-2.7
			c-2.4,0-4.4,0.9-6.1,2.7s-2.5,4-2.5,6.5s0.8,4.8,2.5,6.5s3.7,2.7,6.1,2.7s4.4-0.9,6.1-2.7S302.2,57.4,302.2,54.9z"/>
		<path class="st0" d="M315.7,68.7V40.9h6v4.5c1.3-1.9,2.8-3.3,4.5-4.2s3.8-1.3,6.3-1.3c2.1,0,3.8,0.3,5.3,1
			c1.5,0.7,2.6,1.6,3.4,2.9c0.5,0.8,0.8,1.7,1.1,2.7c0.2,1,0.3,2.8,0.3,5.3v16.8h-6.4V54.4c0-3.7-0.4-6.1-1.3-7.3s-2.5-1.8-4.7-1.8
			c-1.5,0-2.8,0.3-4,0.8c-1.2,0.5-2.1,1.3-2.7,2.3c-0.5,0.7-0.8,1.5-1,2.6c-0.2,1-0.3,2.7-0.3,5v12.7H315.7z"/>
		<path class="st0" d="M350.4,28.9c0-1.1,0.4-2,1.2-2.8c0.8-0.8,1.7-1.2,2.8-1.2c1.1,0,2.1,0.4,2.8,1.1c0.8,0.8,1.1,1.7,1.1,2.8
			c0,1.1-0.4,2.1-1.1,2.9c-0.8,0.8-1.7,1.2-2.8,1.2c-1.1,0-2-0.4-2.8-1.2S350.4,30,350.4,28.9z M351.2,68.7V40.9h6.4v27.8H351.2z"/>
		<path class="st0" d="M364.6,54.8c0-2,0.4-4,1.2-5.8c0.8-1.8,1.9-3.4,3.3-4.8c1.4-1.4,3.1-2.5,4.9-3.2c1.9-0.7,3.8-1.1,5.8-1.1
			c2.1,0,4.1,0.4,5.9,1.1c1.8,0.7,3.5,1.8,5,3.3c1.5,1.4,2.6,3,3.3,4.8c0.8,1.8,1.1,3.7,1.1,5.7c0,2.1-0.4,4-1.1,5.8
			c-0.8,1.8-1.9,3.4-3.3,4.8c-1.5,1.5-3.2,2.6-5.1,3.3c-1.9,0.8-3.8,1.1-5.9,1.1c-2,0-3.9-0.4-5.8-1.1c-1.9-0.8-3.5-1.8-5-3.3
			c-1.5-1.4-2.6-3.1-3.3-4.9C365,58.7,364.6,56.8,364.6,54.8z M388.5,54.9c0-2.6-0.8-4.8-2.5-6.5s-3.7-2.7-6.1-2.7
			c-2.4,0-4.4,0.9-6.1,2.7s-2.5,4-2.5,6.5s0.8,4.8,2.5,6.5s3.7,2.7,6.1,2.7s4.4-0.9,6.1-2.7S388.5,57.4,388.5,54.9z"/>
		<path class="st0" d="M408.1,40.9v15.6c0,2.7,0.6,4.6,1.7,5.8s2.9,1.8,5.4,1.8s4.3-0.6,5.4-1.8s1.7-3.1,1.7-5.8V40.9h6.4v13.7
			c0,5.3-1.1,9.2-3.2,11.6s-5.5,3.6-10.2,3.6c-4.7,0-8.2-1.2-10.3-3.6c-2.1-2.4-3.2-6.2-3.2-11.6V40.9H408.1z"/>
		<path class="st0" d="M434,63.6l5.3-2.9c0.4,1.4,1.1,2.4,2.2,3.2c1.1,0.7,2.4,1.1,4.1,1.1c1.4,0,2.5-0.3,3.4-1
			c0.8-0.7,1.2-1.5,1.2-2.7c0-1.5-1.4-2.8-4.3-3.9c-1-0.4-1.7-0.6-2.3-0.9c-3-1.2-5-2.5-6.2-3.8c-1.2-1.3-1.8-2.8-1.8-4.6
			c0-2.5,1-4.5,2.9-6c1.9-1.5,4.5-2.3,7.7-2.3c2.1,0,4,0.4,5.5,1.2s2.7,1.9,3.4,3.4l-4.5,3.1c-0.3-0.9-0.9-1.6-1.7-2.1
			c-0.8-0.5-1.8-0.8-2.9-0.8c-1.2,0-2.2,0.3-2.9,0.9c-0.7,0.6-1.1,1.3-1.1,2.3c0,1.4,1.6,2.8,4.9,4c1,0.4,1.8,0.7,2.4,0.9
			c2.6,1,4.4,2.2,5.5,3.4c1.1,1.3,1.7,2.9,1.7,4.8c0,2.8-1,4.9-3,6.5c-2,1.6-4.8,2.4-8.3,2.4c-2.7,0-5-0.5-6.8-1.5
			C436.5,67.3,435,65.7,434,63.6z"/>
	</g>
</g>
</svg>
