<?xml version="1.0" encoding="utf-8"?>
<!-- Generator: Adobe Illustrator 27.0.0, SVG Export Plug-In . SVG Version: 6.00 Build 0)  -->
<svg version="1.1" id="Layer_1" xmlns="http://www.w3.org/2000/svg" xmlns:xlink="http://www.w3.org/1999/xlink" x="0px" y="0px"
	 viewBox="0 0 1563.1 364.1" style="enable-background:new 0 0 1563.1 364.1;" xml:space="preserve">
<style type="text/css">
	.st0{fill:#001A31;}
	.st1{fill:#0FABDC;}
	.st2{fill:#FFFFFF;}
</style>
<rect x="-2013" y="519.3" class="st0" width="500" height="565.8"/>
<g>
	
		<text transform="matrix(1 0 0 1 -1719.6174 445.1287)" class="st0" style="font-family:'Montserrat-SemiBold'; font-size:115.6266px;">Devtech</text>
</g>
<g>
	<path class="st1" d="M-1492.4,233c6.2,5.6,14.5,9,23.5,9c19.4,0,35.1-15.7,35.1-35.1c0-19.4-15.7-35.1-35.1-35.1
		c-9.1,0-17.4,3.5-23.6,9.1c-0.1,0.1-0.3,0.2-0.4,0.4c-6.2,5.7-14.5,9.1-23.6,9.1c-9.1,0-17.4-3.5-23.6-9.1
		c-0.1-0.1-0.3-0.3-0.4-0.4c-6.2-5.7-14.5-9.1-23.6-9.1c-19.4,0-35.1,15.7-35.1,35.1c0,19.4,15.7,35.1,35.1,35.1
		c9.1,0,17.3-3.4,23.5-9c0.2-0.2,0.4-0.4,0.6-0.6c6.2-5.6,14.5-9,23.5-9s17.3,3.4,23.5,9C-1492.8,232.6-1492.6,232.8-1492.4,233z"/>
	<path class="st1" d="M-1468.9,76.4c-19.4,0-35.1,15.7-35.1,35.1s15.7,35.1,35.1,35.1c33.2,0,60.2,27,60.2,60.2s-27,60.2-60.2,60.2
		v0c-19.4,0-35.1,15.7-35.1,35.1c0,19.4,15.7,35.1,35.1,35.1c72,0,130.4-58.4,130.4-130.4S-1396.9,76.4-1468.9,76.4z"/>
	
		<ellipse transform="matrix(0.9732 -0.2298 0.2298 0.9732 -67.474 -356.3912)" class="st1" cx="-1564.2" cy="111.6" rx="35.1" ry="35.1"/>
</g>
<g>
	<g>
		
			<text transform="matrix(1 0 0 1 -1325.8905 980.1365)" class="st0" style="font-family:'Montserrat-SemiBold'; font-size:83.697px;">Devtech</text>
	</g>
	<g>
		<path class="st1" d="M-1414.6,962.1c2.9,2.6,6.7,4.2,10.9,4.2c9,0,16.3-7.3,16.3-16.3c0-9-7.3-16.3-16.3-16.3
			c-4.2,0-8.1,1.6-11,4.2c-0.1,0.1-0.1,0.1-0.2,0.2c-2.9,2.6-6.7,4.2-11,4.2c-4.2,0-8.1-1.6-11-4.2c-0.1-0.1-0.1-0.1-0.2-0.2
			c-2.9-2.6-6.8-4.2-11-4.2c-9,0-16.3,7.3-16.3,16.3c0,9,7.3,16.3,16.3,16.3c4.2,0,8-1.6,10.9-4.2c0.1-0.1,0.2-0.2,0.3-0.3
			c2.9-2.6,6.7-4.2,10.9-4.2s8,1.6,10.9,4.2C-1414.8,961.9-1414.7,962-1414.6,962.1z"/>
		<path class="st1" d="M-1403.7,889.4c-9,0-16.3,7.3-16.3,16.3c0,9,7.3,16.3,16.3,16.3c15.4,0,27.9,12.5,27.9,27.9
			s-12.5,27.9-27.9,27.9v0c-9,0-16.3,7.3-16.3,16.3c0,9,7.3,16.3,16.3,16.3c33.4,0,60.6-27.1,60.6-60.6S-1370.3,889.4-1403.7,889.4z
			"/>
		
			<ellipse transform="matrix(0.9732 -0.2298 0.2298 0.9732 -246.8318 -308.4418)" class="st1" cx="-1447.9" cy="905.7" rx="16.3" ry="16.3"/>
	</g>
</g>
<g>
	<path class="st1" d="M-1252.8,714.1c5.1,4.6,11.9,7.4,19.3,7.4c15.9,0,28.8-12.9,28.8-28.8c0-15.9-12.9-28.8-28.8-28.8
		c-7.4,0-14.2,2.8-19.4,7.5c-0.1,0.1-0.2,0.2-0.3,0.3c-5.1,4.6-11.9,7.5-19.3,7.5c-7.4,0-14.2-2.8-19.3-7.5
		c-0.1-0.1-0.2-0.2-0.3-0.3c-5.1-4.7-11.9-7.5-19.4-7.5c-15.9,0-28.8,12.9-28.8,28.8c0,15.9,12.9,28.8,28.8,28.8
		c7.4,0,14.2-2.8,19.3-7.4c0.2-0.1,0.3-0.3,0.5-0.5c5.1-4.6,11.9-7.4,19.3-7.4c7.4,0,14.2,2.8,19.3,7.4
		C-1253.1,713.8-1252.9,713.9-1252.8,714.1z"/>
	<path class="st1" d="M-1233.5,585.8c-15.9,0-28.8,12.9-28.8,28.8s12.9,28.8,28.8,28.8c27.2,0,49.3,22.1,49.3,49.3
		s-22.1,49.3-49.3,49.3v0c-15.9,0-28.8,12.9-28.8,28.8c0,15.9,12.9,28.8,28.8,28.8c59,0,106.9-47.8,106.9-106.9
		S-1174.5,585.8-1233.5,585.8z"/>
	
		<ellipse transform="matrix(0.9732 -0.2298 0.2298 0.9732 -176.2932 -284.8955)" class="st1" cx="-1311.6" cy="614.6" rx="28.8" ry="28.8"/>
</g>
<g>
	<g>
		
			<text transform="matrix(1 0 0 1 -1962.8417 948.4708)" class="st2" style="font-family:'Montserrat-SemiBold'; font-size:96.9284px;">Devtech</text>
	</g>
	<g>
		<path class="st1" d="M-1778.1,762.9c5.1,4.6,11.8,7.4,19.1,7.4c15.8,0,28.6-12.8,28.6-28.6c0-15.8-12.8-28.6-28.6-28.6
			c-7.4,0-14.1,2.8-19.2,7.4c-0.1,0.1-0.2,0.2-0.3,0.3c-5.1,4.6-11.8,7.4-19.2,7.4c-7.4,0-14.1-2.8-19.2-7.4
			c-0.1-0.1-0.2-0.2-0.3-0.3c-5.1-4.6-11.8-7.4-19.2-7.4c-15.8,0-28.6,12.8-28.6,28.6c0,15.8,12.8,28.6,28.6,28.6
			c7.4,0,14.1-2.8,19.1-7.4c0.2-0.1,0.3-0.3,0.5-0.5c5.1-4.6,11.8-7.4,19.1-7.4s14.1,2.8,19.1,7.4
			C-1778.5,762.6-1778.3,762.8-1778.1,762.9z"/>
		<path class="st1" d="M-1759,635.6c-15.8,0-28.6,12.8-28.6,28.6s12.8,28.6,28.6,28.6c27,0,48.9,22,48.9,48.9s-22,48.9-48.9,48.9v0
			c-15.8,0-28.6,12.8-28.6,28.6c0,15.8,12.8,28.6,28.6,28.6c58.6,0,106.1-47.5,106.1-106.1C-1652.9,683.1-1700.4,635.6-1759,635.6z"
			/>
		
			<ellipse transform="matrix(0.9732 -0.2298 0.2298 0.9732 -201.7208 -404.1841)" class="st1" cx="-1836.5" cy="664.2" rx="28.6" ry="28.6"/>
	</g>
</g>
<rect x="-3302.5" class="st0" width="1080" height="1080"/>
<g>
	<g>
		
			<text transform="matrix(1 0 0 1 -3197.9404 773.5566)" class="st2" style="font-family:'Montserrat-SemiBold'; font-size:125.9376px;">The Tech Dev</text>
	</g>
	<g>
		<path class="st1" d="M-2793.9,484.1c8.4,7.6,19.5,12.2,31.7,12.2c26.2,0,47.4-21.2,47.4-47.4c0-26.2-21.2-47.4-47.4-47.4
			c-12.3,0-23.4,4.7-31.9,12.3c-0.2,0.2-0.4,0.3-0.5,0.5c-8.4,7.6-19.6,12.3-31.8,12.3c-12.3,0-23.4-4.7-31.8-12.3
			c-0.2-0.2-0.4-0.4-0.5-0.5c-8.4-7.7-19.6-12.3-31.9-12.3c-26.2,0-47.4,21.2-47.4,47.4c0,26.2,21.2,47.4,47.4,47.4
			c12.2,0,23.3-4.6,31.7-12.2c0.3-0.2,0.5-0.5,0.8-0.8c8.4-7.6,19.5-12.2,31.7-12.2s23.3,4.6,31.7,12.2
			C-2794.5,483.6-2794.2,483.9-2793.9,484.1z"/>
		<path class="st1" d="M-2762.2,273.1c-26.2,0-47.4,21.2-47.4,47.4c0,26.2,21.2,47.4,47.4,47.4c44.7,0,81.1,36.4,81.1,81.1
			s-36.4,81.1-81.1,81.1v0c-26.2,0-47.4,21.2-47.4,47.4c0,26.2,21.2,47.4,47.4,47.4c97.1,0,175.9-78.7,175.9-175.9
			S-2665.1,273.1-2762.2,273.1z"/>
		
			<ellipse transform="matrix(0.9732 -0.2298 0.2298 0.9732 -150.9521 -655.5721)" class="st1" cx="-2890.7" cy="320.4" rx="47.4" ry="47.4"/>
	</g>
</g>
<g>
	<g>
		<path class="st2" d="M443.9,140h-38.2v-18.1h97.8V140h-38.2v97.1h-21.4V140z"/>
		<path class="st2" d="M604.2,186.7v50.4h-20.6v-47.7c0-15.6-7.7-23.2-20.9-23.2c-14.6,0-24.5,8.9-24.5,26.5v44.4h-20.6V115h20.6
			v44.4c6.7-7.2,17.1-11.2,29.3-11.2C588.6,148.2,604.2,160.2,604.2,186.7z"/>
		<path class="st2" d="M713.5,199.7h-69c2.5,12.8,13.2,21.1,28.5,21.1c9.9,0,17.6-3.1,23.9-9.5l11,12.7
			c-7.9,9.4-20.2,14.3-35.4,14.3c-29.5,0-48.5-18.9-48.5-45.1c0-26.2,19.3-44.9,45.4-44.9c25.7,0,44.4,17.9,44.4,45.4
			C713.8,195.3,713.6,197.8,713.5,199.7z M644.3,186.1h49.9c-1.6-12.7-11.4-21.4-24.8-21.4C656,164.7,646.3,173.2,644.3,186.1z"/>
		<path class="st2" d="M804.3,140h-38.2v-18.1h97.8V140h-38.2v97.1h-21.4V140z"/>
		<path class="st2" d="M951.3,199.7h-69c2.5,12.8,13.2,21.1,28.5,21.1c9.9,0,17.6-3.1,23.9-9.5l11,12.7
			c-7.9,9.4-20.2,14.3-35.4,14.3c-29.5,0-48.5-18.9-48.5-45.1c0-26.2,19.3-44.9,45.4-44.9c25.7,0,44.4,17.9,44.4,45.4
			C951.6,195.3,951.4,197.8,951.3,199.7z M882.2,186.1H932c-1.6-12.7-11.4-21.4-24.8-21.4C893.8,164.7,884.1,173.2,882.2,186.1z"/>
		<path class="st2" d="M964.1,193.2c0-26.3,19.7-44.9,47.6-44.9c17.1,0,30.8,7.1,37.5,20.4l-15.8,9.2c-5.3-8.4-13.2-12.2-21.9-12.2
			c-15.1,0-26.7,10.5-26.7,27.5c0,17.1,11.5,27.5,26.7,27.5c8.7,0,16.6-3.8,21.9-12.2l15.8,9.2c-6.7,13.2-20.4,20.6-37.5,20.6
			C983.9,238.2,964.1,219.5,964.1,193.2z"/>
		<path class="st2" d="M1152.7,186.7v50.4h-20.6v-47.7c0-15.6-7.7-23.2-20.9-23.2c-14.6,0-24.5,8.9-24.5,26.5v44.4h-20.6V115h20.6
			v44.4c6.7-7.2,17.1-11.2,29.3-11.2C1137.1,148.2,1152.7,160.2,1152.7,186.7z"/>
		<path class="st2" d="M1226.3,121.9h50.4c37.4,0,62.9,23,62.9,57.6c0,34.6-25.5,57.6-62.9,57.6h-50.4V121.9z M1275.6,219
			c25.7,0,42.3-15.6,42.3-39.5c0-23.9-16.6-39.5-42.3-39.5h-28v79H1275.6z"/>
		<path class="st2" d="M1442.5,199.7h-69c2.5,12.8,13.2,21.1,28.5,21.1c9.9,0,17.6-3.1,23.9-9.5l11,12.7
			c-7.9,9.4-20.2,14.3-35.4,14.3c-29.5,0-48.5-18.9-48.5-45.1c0-26.2,19.3-44.9,45.4-44.9c25.7,0,44.4,17.9,44.4,45.4
			C1442.8,195.3,1442.7,197.8,1442.5,199.7z M1373.4,186.1h49.9c-1.6-12.7-11.4-21.4-24.8-21.4
			C1385.1,164.7,1375.4,173.2,1373.4,186.1z"/>
		<path class="st2" d="M1543.2,149.2l-37.7,87.9h-21.2l-37.7-87.9h21.4l27.3,65.2l28.1-65.2H1543.2z"/>
	</g>
</g>
<g>
	<path class="st2" d="M149.2,218.5c8.7,7.8,20.2,12.6,32.8,12.6c27.1,0,49-22,49-49c0-27.1-22-49.1-49-49.1
		c-12.7,0-24.3,4.8-33,12.8c-0.2,0.2-0.4,0.3-0.6,0.5c-8.7,7.9-20.3,12.7-33,12.7c-12.7,0-24.3-4.8-33-12.7
		c-0.2-0.2-0.4-0.4-0.6-0.5c-8.7-7.9-20.3-12.8-33-12.8C22,133,0,155,0,182.1c0,27.1,22,49,49,49c12.6,0,24.2-4.8,32.8-12.6
		c0.3-0.2,0.6-0.5,0.8-0.8c8.7-7.8,20.2-12.6,32.8-12.6s24.1,4.8,32.8,12.6C148.7,218,148.9,218.2,149.2,218.5z"/>
	<path class="st2" d="M182.1,0c-27.1,0-49,22-49,49s22,49,49,49c46.3,0,84,37.7,84,84s-37.7,84-84,84v0c-27.1,0-49,22-49,49
		c0,27.1,22,49,49,49c100.5,0,182.1-81.5,182.1-182.1S282.6,0,182.1,0z"/>
	<ellipse transform="matrix(0.9732 -0.2298 0.2298 0.9732 -9.9561 12.5801)" class="st2" cx="49" cy="49" rx="49" ry="49"/>
</g>
<g>
	<path class="st0" d="M-1428,847.7c129.1-4.8,259.9-4.8,389,0C-1168.1,852.6-1298.9,852.5-1428,847.7L-1428,847.7z"/>
</g>
</svg>
